# xmcd
#
# Track frame offsets: 
#        150
#        15463
#        33166
#        48908
#        68903
#        84347
#        103909
#        120885
#        137714
#        154917
#        168343
#        188822
#        207700
#
# Disc length: 3028 seconds
#
# Revision: 0
# Processed by: cddbd v1.5.2PL0 Copyright (c) Steve Scherf et al.
# Submitted via: ExactAudioCopy v1.3
#
DISCID=a70bd20d
DTITLE=The Black Sorrows - Citizen John
DYEAR=2018
DGENRE=Blues Rock
TTITLE0=Wednesday's Child
TTITLE1=Lover I Surrender
TTITLE2=Do I Move You
TTITLE3=Messiah
TTITLE4=Silvio
TTITLE5=Storm The Bastille
TTITLE6=Way Below The Heavens
TTITLE7=Citizen John
TTITLE8=Brother Moses Sister Mae
TTITLE9=Nothin' But The Blues
TTITLE10=Month Of Sundays
TTITLE11=Worlds Away
TTITLE12=Sitting On Top Of The World
EXTD=
EXTT0=
EXTT1=
EXTT2=
EXTT3=
EXTT4=
EXTT5=
EXTT6=
EXTT7=
EXTT8=
EXTT9=
EXTT10=
EXTT11=
EXTT12=
PLAYORDER=
